<?xml version="1.0" encoding="UTF-8"?>
<svg id="Layer_1" xmlns="http://www.w3.org/2000/svg" xmlns:xlink="http://www.w3.org/1999/xlink" viewBox="0 0 1280 720">
  <defs>
    <style>
      .cls-1 {
        fill: none;
      }

      .cls-2, .cls-3 {
        fill: #fff;
        fill-rule: evenodd;
      }

      .cls-4 {
        fill: #00adee;
      }

      .cls-5 {
        fill: #808184;
      }

      .cls-6 {
        fill: #79a37a;
      }

      .cls-7 {
        fill: #f5f5f5;
      }

      .cls-8 {
        fill: #79a27a;
      }

      .cls-9 {
        fill: #d9f1fa;
      }

      .cls-3 {
        stroke: #e6e6e6;
        stroke-miterlimit: 8;
      }

      .cls-10 {
        clip-path: url(#clippath);
      }
    </style>
    <clipPath id="clippath">
      <rect class="cls-1" width="1280" height="720"/>
    </clipPath>
  </defs>
  <g id="Layer_1-2" data-name="Layer_1">
    <g id="Layer_1-2">
      <g class="cls-10">
        <g>
          <g>
            <rect class="cls-6" x=".5" y="680" width="1280" height="40"/>
            <rect class="cls-7" y="57" width="1280" height="624"/>
            <path class="cls-2" d="M0,58h1280v103.34H0V58Z"/>
            <rect class="cls-9" x=".5" width="1280" height="59"/>
          </g>
          <g>
            <path class="cls-3" d="M962.25,434.49c0-2.13,1.82-3.85,4.05-3.85h292.9c2.24,0,4.05,1.72,4.05,3.85v230.57c0,2.12-1.81,3.85-4.05,3.85h-292.9c-2.24,0-4.05-1.72-4.05-3.85v-230.57Z"/>
            <path class="cls-3" d="M647.25,434.49c0-2.13,1.82-3.85,4.05-3.85h292.89c2.24,0,4.05,1.72,4.05,3.85v230.57c0,2.12-1.82,3.85-4.05,3.85h-292.89c-2.24,0-4.05-1.72-4.05-3.85v-230.57Z"/>
            <path class="cls-3" d="M332.25,434.49c0-2.13,1.82-3.85,4.05-3.85h292.89c2.24,0,4.05,1.72,4.05,3.85v230.57c0,2.12-1.82,3.85-4.05,3.85h-292.89c-2.24,0-4.05-1.72-4.05-3.85v-230.57Z"/>
            <path class="cls-3" d="M961.75,183.85c0-2.13,1.82-3.85,4.05-3.85h292.9c2.24,0,4.05,1.72,4.05,3.85v230.57c0,2.12-1.81,3.85-4.05,3.85h-292.9c-2.24,0-4.05-1.72-4.05-3.85v-230.57Z"/>
            <path class="cls-3" d="M646.75,183.85c0-2.13,1.82-3.85,4.05-3.85h292.89c2.24,0,4.05,1.72,4.05,3.85v230.57c0,2.12-1.82,3.85-4.05,3.85h-292.89c-2.24,0-4.05-1.72-4.05-3.85v-230.57Z"/>
            <path class="cls-3" d="M331.75,183.85c0-2.13,1.82-3.85,4.05-3.85h292.89c2.24,0,4.05,1.72,4.05,3.85v230.57c0,2.12-1.82,3.85-4.05,3.85h-292.89c-2.24,0-4.05-1.72-4.05-3.85v-230.57Z"/>
            <path class="cls-3" d="M16.75,517.9c0-2.6,2.22-4.72,4.97-4.72h292.06c2.74,0,4.97,2.11,4.97,4.72v146.24c0,2.6-2.22,4.72-4.97,4.72H21.72c-2.74,0-4.97-2.11-4.97-4.72v-146.24Z"/>
            <path class="cls-3" d="M16.75,351.78c0-2.6,2.22-4.72,4.97-4.72h292.06c2.74,0,4.97,2.11,4.97,4.72v146.24c0,2.6-2.22,4.72-4.97,4.72H21.72c-2.74,0-4.97-2.11-4.97-4.72v-146.24Z"/>
            <path class="cls-3" d="M16.75,184.74c0-2.62,2.24-4.74,5-4.74h292c2.76,0,5,2.12,5,4.74v147.14c0,2.62-2.24,4.74-5,4.74H21.75c-2.76,0-5-2.12-5-4.74v-147.14Z"/>
          </g>
        </g>
      </g>
      <g>
        <path class="cls-8" d="M36.6,12.5c-4-.6-7.7.3-11.2,2.8-3.4,2.5-5.5,5.8-6.2,10-.7,4.2.1,8,2.6,11.3,1.3,1.8,3,2.9,5.1,3.3.8,0,1.6.2,2.4,0,.4.5.7.7.7.7h.9c-.2-.3-.5-.6-.8-.9h0c-2.1-2.3-8.4-9.2-6.1-16.2,2.5-7.9,8.5-8.7,8.5-8.7,0,0-5.6,2.3-7.4,9.1-1.7,6.2,2.8,12,5.8,15.6.6-.2,1.3-.6,1.9-1,1.7-1.2,2.3-2.5,2.7-4.5s0-3.9-1.2-5.7l-.3-.4c-1.1-1.8-1.5-3.7-1.2-5.7.4-2,1.8-3.9,3.5-5.1,1.8-1.3,4-1.7,5.3-1.5,1.8.2-.9-2.4-4.9-3h-.1v-.1Z"/>
        <path class="cls-4" d="M48.2,20.6c-1.3-1.8-3.2-3.2-5.3-3.7-1.4-.4-3.9,0-5.7,1.3-1.7,1.2-2.5,2.9-2.7,4.4-.3,2,.3,3.7,1.5,5.5,0,0,2.2,3,1.1,7.1-.5,2-1.5,3.6-3.2,4.8-1.8,1.3-3.6,1.8-5.4,1.5s.9,2.4,4.9,3,7.7-.3,11.2-2.8c3.4-2.4,5.5-5.8,6.2-9.9.7-4.2,0-7.9-2.6-11.3h0v.1ZM41.2,20.1c-.5-.4-.9-2.5,1.3-2.2,5.3,1.5,5.4,7.2,5.4,7.2-.7-4.1-5.7-4.2-6.7-5Z"/>
        <path class="cls-4" d="M102.7,34.8c0,.4.2.5.6.5h1.6c.3,0,.4-.2.5-.5l3.7-11.8v-.5c0-.3-.3-.3-.5-.3h-1.5c-.4,0-.5.1-.6.5l-2.3,8.5-2.6-8.5c0-.4-.2-.5-.5-.5h-.9c-.2,0-.3.3-.3.5l-2.5,8.5-2.3-8.5c0-.5-.3-.5-.7-.5h-2.1c-.2,0-.5,0-.5.4v.5l3.7,11.8c0,.4.2.5.6.5h1.6c.3,0,.5,0,.6-.4l2.1-6.8,2.1,6.8h0v-.2h.2ZM119.6,26.3c0-1.9,0-4.4-4-4.4s-5,1.5-5,3.1.6,1.3,1.4,1.3,1.2-.6,1.4-1.3c.2-.5.6-1.4,1.8-1.4s1.5,1.4,1.5,2.3v1.3c-2.9.8-4.5,1.2-5.6,2.3s-1.1,2-1.1,2.6c0,3.6,4.1,3.6,4.9,3.6s2.4,0,3.7-.8c1-.5,1.1-1.1,1.1-2.2v-6.3h-.1v-.1ZM116.6,32.2c0,.6,0,1.7-1.6,1.7s-2.1-.9-2.1-2.2c0-1.9,1.7-2.4,3.7-3v3.5h0ZM127.5,23.6c.4,0,.4-.1.4-1s-.2-.4-.5-.4h-1.9v-3c0-.3,0-.7-.4-.7s-.2,0-.5.2l-1.8,1.2c-.4.3-.5.4-.5.9v1.4h-1.2c-.3,0-.4.1-.4.4,0,.9,0,1,.5,1h1.2v8.3c0,.8,0,1.7.7,2.6.5.6,1.4,1.1,2.8,1.1s2.4-.4,2.4-1.1-.5-.7-1.1-.7c-1.7,0-1.7-1.7-1.7-2.4v-7.8s2,0,2,0ZM138.6,27.6c.3,0,.9-.1.9-1s-.9-4.7-4.9-4.7-5.7,1.8-5.7,6.8,2.3,6.9,5.7,6.9,5-3.7,5-4.4-.3-.8-.7-.8-.5.2-.9.7c-.7.9-1.7,1.7-3,1.7s-3.1-.7-3.5-4.2l7-1h.1ZM131.5,27.1c.1-1.7.9-3.3,2.7-3.3s2.1.9,2.2,2.5l-4.8.8h-.1ZM144.8,25c0-.6,0-1.5,1.3-1.5s1,.4,1.3.7c.4.6.6,1,1.3,1s1.3-.6,1.3-1.4c0-1.5-1.5-1.9-3-1.9s-3.8.4-4.6.9c-.6.3-.7.7-.7,1.4v10.6c0,.4.1.5.6.5h2.1c.4,0,.5,0,.5-.5v-9.8h-.1Z"/>
        <path class="cls-8" d="M61.5,27.2c-.9-.4-2-.9-2-2.1s.5-1.5,1.5-1.5,1.5.8,1.7,1.2c.3.5.6,1,1.4,1s1.2-.5,1.2-1.2c0-1-1.1-2.7-4.2-2.7s-4.4,1.9-4.4,3.7,2,3.3,2.8,3.7c.6.3,2.2,1,2.5,1.3.3.2.8.7.8,1.6s-.7,1.6-1.6,1.6-1.5-.7-2.1-1.5c-.4-.5-.7-1-1.4-1s-1.3.6-1.3,1.4,1.2,3.1,4.7,3.1,4.5-2.5,4.5-4c0-2.4-1.8-3.3-3-3.9l-1.3-.6h.2v-.1ZM77.1,27.6c.3,0,.9-.1.9-1s-.9-4.7-4.9-4.7-5.7,1.8-5.7,6.8,2.3,6.9,5.7,6.9,5-3.7,5-4.4-.3-.8-.7-.8-.5.2-.9.7c-.7.9-1.7,1.7-3,1.7s-3.1-.7-3.5-4.2l7-1h.1ZM70,27.1c0-1.7.9-3.3,2.7-3.3s2.1.9,2.2,2.5l-4.8.8h-.1ZM87.4,40.7c0,.5.2.5.6.5h1.9c.4,0,.6,0,.6-.5v-15.3c0-1.1,0-1.8-.9-2.4-.8-.6-2.2-1.1-3.7-1.1-4.8,0-6.4,4.4-6.4,7.6s1.6,6.2,4.6,6.2,2.7-1,3.3-1.4v6.5h0v-.1ZM87.4,32.3c-.6.5-1.2.9-2,.9-1.8,0-2.7-2.1-2.7-4.4s1-5.1,3.1-5.1,1.6,1.3,1.6,2.2v6.3h0v.1Z"/>
        <path class="cls-5" d="M101.3,38.5h-.7l-.8,3.3-.9-3.3h-.6l-.9,3.3-.8-3.3h-.7l1.2,4.6h.6l.9-3.2.9,3.2h.6l1.2-4.6h0ZM105.3,43.1l-1.7-4.6h-.6l-1.7,4.6h.7l.3-.9h1.8l.3.9h.9,0ZM104,41.6h-1.4l.7-2,.7,2h0ZM108.4,39.1v-.6h-3.2v.6h1.3v4h.7v-4h1.3-.1ZM112.1,43.1v-.6h-2.2v-1.4h1.9v-.6h-1.9v-1.3h2.2v-.6h-2.9v4.6h2.9v-.1ZM116.5,43.1l-1.1-2c.5,0,.9-.6.9-1.2s-.6-1.3-1.4-1.3h-1.8v4.6h.7v-1.9h.9l1,1.9h.8v-.1ZM115.6,39.9c0,.5-.3.7-.8.7h-1v-1.4h1c.5,0,.8.3.8.7h0ZM121.8,39.1v-.6h-2.9v4.6h.7v-1.9h1.9v-.6h-1.9v-1.4h2.2v-.1ZM125.7,40.8c0-.9,0-1.4-.4-1.9-.3-.3-.7-.5-1.2-.5s-.9.2-1.2.5c-.5.5-.4,1-.4,1.9s0,1.4.4,1.9c.3.3.7.5,1.2.5s.9-.2,1.2-.5c.5-.5.4-1,.4-1.9h0ZM125,40.8c0,.9,0,1.2-.3,1.4-.2.2-.4.3-.7.3s-.5,0-.7-.3-.3-.5-.3-1.4,0-1.2.3-1.4c.2-.2.4-.3.7-.3s.5,0,.7.3.3.5.3,1.4h0ZM130.1,43.1l-1.1-2c.5,0,.9-.6.9-1.2s-.6-1.3-1.4-1.3h-1.8v4.6h.7v-1.9h.9l1,1.9h.8v-.1ZM129.2,39.9c0,.5-.3.7-.8.7h-1v-1.4h1c.5,0,.8.3.8.7h0ZM135.4,43.1v-.6h-2.2v-4h-.7v4.6h2.9ZM136.9,43.1v-4.6h-.7v4.6h.7ZM141.1,39.1v-.6h-2.9v4.6h.7v-1.9h1.9v-.6h-1.9v-1.4h2.2v-.1ZM144.9,43.1v-.6h-2.2v-1.4h1.9v-.6h-1.9v-1.3h2.2v-.6h-2.9v4.6h2.9v-.1Z"/>
      </g>
    </g>
  </g>
</svg>